<?xml version="1.0" standalone="no"?>
<!DOCTYPE svg PUBLIC "-//W3C//DTD SVG 20010904//EN"
 "http://www.w3.org/TR/2001/REC-SVG-20010904/DTD/svg10.dtd">
<svg version="1.0" xmlns="http://www.w3.org/2000/svg"
 width="256.000000pt" height="256.000000pt" viewBox="0 0 256.000000 256.000000"
 preserveAspectRatio="xMidYMid meet">
<metadata>
Created by potrace 1.11, written by Peter Selinger 2001-2013
</metadata>
<g transform="translate(0.000000,256.000000) scale(0.100000,-0.100000)"
fill="#000000" stroke="none">
<path d="M1193 2524 c-5 -13 -7 -13 -14 -2 -6 8 -9 9 -9 1 0 -12 -17 -12 -38
0 -7 5 -14 3 -17 -5 -3 -7 -17 -14 -32 -15 -26 -1 -27 0 -8 13 10 8 15 14 10
14 -5 0 -16 -6 -24 -13 -24 -19 -71 -38 -71 -28 0 5 6 12 13 14 9 4 9 6 -1 6
-7 1 -15 -5 -18 -13 -3 -8 -16 -13 -29 -11 -15 1 -22 -2 -18 -8 4 -6 -2 -8
-15 -5 -14 4 -20 2 -15 -5 4 -6 0 -8 -10 -4 -10 4 -17 1 -17 -6 0 -8 -4 -6
-10 3 -8 13 -10 13 -10 -2 0 -12 -5 -15 -17 -11 -11 5 -14 3 -8 -6 6 -10 3
-11 -13 -2 -17 9 -23 7 -36 -10 -9 -14 -21 -19 -31 -15 -9 3 -13 2 -10 -3 3
-5 1 -12 -5 -16 -5 -3 -10 0 -10 7 0 7 -7 3 -15 -9 -10 -14 -21 -20 -32 -16
-11 4 -14 2 -9 -5 6 -10 -26 -25 -56 -27 -3 0 -10 -4 -15 -9 -5 -5 -3 -6 5 -2
6 4 12 2 12 -5 0 -6 -8 -9 -19 -6 -15 4 -18 1 -13 -12 5 -14 4 -14 -11 -2 -9
7 -18 11 -18 7 -1 -3 -2 -12 -3 -18 -1 -7 -7 -12 -14 -10 -7 1 -12 -5 -12 -13
0 -8 -7 -15 -16 -15 -8 0 -13 -4 -9 -9 3 -6 -3 -8 -14 -6 -14 3 -18 -1 -14
-11 4 -10 0 -12 -11 -8 -12 5 -15 2 -9 -12 3 -10 2 -15 -3 -12 -5 4 -18 -1
-29 -9 -16 -13 -17 -15 -2 -10 27 10 20 1 -19 -23 -19 -12 -33 -24 -30 -27 5
-6 -23 -33 -49 -49 -10 -6 -21 -17 -23 -25 -2 -8 3 -5 13 6 9 11 13 13 9 5
-12 -25 -46 -60 -54 -55 -4 3 -7 -3 -6 -12 0 -10 -4 -18 -11 -18 -6 0 -15 -4
-20 -9 -5 -5 -3 -6 5 -2 6 4 12 4 12 -1 0 -12 -16 -35 -24 -34 -18 3 -20 0 -6
-9 10 -6 11 -10 3 -10 -7 0 -13 -7 -13 -16 0 -8 -5 -12 -10 -9 -6 4 -10 3 -9
-2 3 -13 -13 -63 -20 -63 -4 0 -13 -16 -20 -35 -8 -23 -17 -33 -24 -28 -7 4
-5 -2 3 -12 14 -17 13 -18 -4 -12 -16 6 -17 5 -6 -7 10 -13 8 -22 -7 -48 -11
-18 -18 -41 -16 -50 3 -12 -2 -18 -14 -19 -11 0 -13 -3 -5 -6 10 -4 10 -8 0
-21 -10 -12 -10 -14 -1 -8 9 5 11 2 7 -8 -3 -9 -9 -14 -13 -11 -4 2 -5 -9 -3
-26 3 -20 -2 -37 -14 -52 -19 -21 -19 -21 0 -7 18 14 19 14 10 -5 -6 -11 -9
-30 -8 -42 0 -13 -1 -23 -5 -23 -6 0 -6 -155 0 -220 2 -25 0 -34 -10 -32 -7 1
-10 -2 -6 -8 3 -6 11 -7 17 -4 7 5 9 -2 6 -20 -3 -14 -1 -26 4 -26 5 0 6 -5 3
-10 -4 -6 -1 -17 5 -25 10 -12 9 -15 -6 -15 -18 -1 -18 -1 -1 -11 14 -8 15
-14 5 -32 -10 -20 -10 -21 5 -9 14 12 16 9 14 -26 -1 -22 2 -40 6 -39 9 2 17
-20 19 -50 1 -7 5 -13 9 -13 4 0 10 -7 13 -16 4 -10 2 -13 -7 -8 -8 6 -8 3 1
-9 8 -9 10 -22 6 -28 -4 -8 -3 -9 4 -5 12 7 16 -5 13 -33 -2 -7 2 -10 7 -7 6
3 13 -1 16 -10 4 -10 2 -13 -7 -9 -6 4 -1 -3 13 -14 14 -11 19 -21 13 -21 -7
0 -13 -4 -13 -10 0 -5 7 -7 15 -4 8 4 15 2 15 -4 0 -6 -6 -13 -12 -15 -7 -3
-3 -6 10 -6 15 -1 22 -7 22 -20 0 -11 4 -21 9 -23 5 -1 11 -9 13 -17 2 -7 12
-23 23 -36 35 -38 55 -65 55 -73 0 -5 11 -14 24 -22 16 -8 23 -19 21 -32 -2
-11 0 -16 6 -12 11 7 56 -35 51 -48 -1 -5 3 -7 10 -6 7 2 12 -4 13 -12 1 -8 7
-14 14 -12 7 1 24 -9 37 -23 12 -14 28 -25 34 -25 5 0 10 -5 10 -12 0 -6 3 -9
6 -5 4 3 12 1 20 -6 28 -25 40 -33 56 -40 11 -4 16 -13 12 -24 -5 -15 -4 -15
5 -3 9 13 14 12 38 -7 15 -12 27 -26 25 -33 -1 -6 2 -9 8 -5 8 5 7 12 -2 23
-12 16 -11 16 7 2 11 -8 23 -19 27 -25 5 -6 8 -6 8 -1 0 6 7 1 16 -10 8 -10
13 -13 9 -7 -4 9 -1 11 9 7 9 -3 14 -9 11 -14 -2 -4 7 -5 20 -2 16 3 25 0 25
-9 0 -7 3 -9 7 -6 3 4 12 -1 20 -11 8 -9 12 -11 8 -4 -7 13 4 16 29 6 8 -3 14
-11 12 -17 -1 -7 -1 -9 1 -4 6 10 43 9 43 -2 0 -5 9 -7 20 -4 12 3 20 0 20 -6
0 -7 -5 -9 -12 -5 -7 5 -8 3 -3 -6 6 -10 11 -9 22 5 7 11 13 14 13 7 0 -7 12
-10 31 -7 27 3 29 2 17 -12 -11 -14 -11 -15 8 -5 11 6 26 7 33 3 7 -4 24 -6
38 -3 16 3 24 1 20 -5 -3 -5 0 -10 8 -10 8 0 12 4 9 9 -3 4 2 8 11 8 9 0 14
-4 11 -8 -3 -5 1 -9 9 -9 8 0 12 4 9 9 -3 4 2 8 11 8 9 0 14 -4 11 -9 -7 -10
20 -9 30 2 11 10 26 9 20 -2 -7 -10 20 -9 30 2 11 11 26 8 19 -3 -3 -5 -2 -10
3 -10 6 0 13 8 16 17 6 15 8 15 16 3 6 -8 10 -10 10 -4 0 7 14 10 35 8 19 -1
35 2 35 8 0 6 7 4 17 -3 14 -12 15 -12 9 0 -7 10 -3 12 13 6 11 -3 21 -2 21 3
0 9 7 11 58 15 17 1 32 6 32 11 0 5 3 6 7 3 3 -4 12 -2 20 4 7 6 22 9 33 6 11
-3 18 -1 15 4 -6 9 41 25 62 21 6 -1 15 3 19 9 5 8 3 9 -6 4 -8 -5 -11 -4 -6
3 4 6 13 9 21 6 8 -4 17 1 21 9 3 9 14 14 25 12 11 -2 17 0 14 5 -5 8 23 22
37 17 4 -1 15 8 24 21 13 19 19 21 30 11 9 -7 14 -8 13 -3 -3 19 1 34 12 34 5
0 7 -6 3 -12 -3 -7 5 0 18 16 17 20 30 27 42 23 10 -4 15 -3 11 3 -4 6 0 17 9
25 11 11 16 12 19 2 4 -8 6 -8 6 3 1 17 87 100 95 92 3 -3 6 1 6 8 0 7 9 22
20 34 39 40 70 79 70 88 0 5 4 7 9 4 5 -3 12 1 15 10 4 10 2 13 -7 8 -8 -5 -8
-2 2 9 7 9 18 14 24 10 5 -3 7 -2 4 4 -4 6 1 19 9 29 9 10 12 13 8 5 -5 -9 -3
-12 5 -7 6 4 9 11 6 16 -8 13 6 41 18 33 5 -3 7 -1 3 5 -6 10 30 92 41 92 2 0
1 -5 -3 -12 -5 -7 -3 -8 5 -4 7 5 10 14 7 22 -9 22 12 66 26 58 9 -5 9 -2 -1
9 -9 11 -10 17 -2 17 6 0 10 6 9 13 -2 6 4 11 12 9 12 -3 12 -1 3 9 -13 13 -7
39 15 57 10 7 11 12 4 12 -17 0 -15 26 4 44 12 12 12 16 2 16 -10 0 -9 3 2 10
8 5 11 10 6 10 -5 0 -3 6 3 14 9 11 9 16 0 22 -9 5 -7 10 7 15 17 7 17 8 1 8
-15 1 -16 4 -7 22 7 11 9 26 7 34 -3 7 0 18 6 25 9 10 9 11 -2 5 -10 -6 -12
-4 -5 6 8 13 14 50 15 91 0 10 5 20 10 23 12 8 2 25 -14 25 -8 0 -8 -3 2 -9 8
-5 9 -11 3 -15 -5 -3 -12 1 -16 9 -3 8 -1 17 4 20 6 4 7 18 4 32 -5 20 -4 24
7 19 8 -4 5 0 -6 9 -17 14 -18 17 -5 25 10 7 11 12 4 18 -15 10 -25 42 -13 42
6 0 6 7 -1 20 -6 11 -7 20 -3 20 4 0 1 5 -7 10 -10 6 -11 10 -2 10 6 0 12 5
12 11 0 5 -4 8 -9 5 -5 -3 -11 1 -14 8 -3 8 -1 17 6 19 8 3 6 10 -7 19 -14 11
-16 17 -7 22 9 6 7 12 -6 23 -10 8 -13 12 -7 9 6 -3 11 1 11 8 0 9 -7 12 -16
8 -14 -5 -14 -4 -1 13 12 15 12 17 1 10 -11 -6 -13 -3 -8 14 3 14 0 24 -9 28
-8 3 -14 13 -14 23 0 10 -6 21 -12 23 -10 4 -9 6 1 6 9 1 6 8 -9 21 -15 13
-18 20 -9 20 10 1 9 4 -3 11 -10 5 -22 19 -28 29 -9 16 -8 19 7 14 10 -3 7 2
-7 10 -14 8 -21 15 -15 16 5 0 -1 7 -13 16 -12 8 -20 20 -16 25 3 5 -3 17 -13
27 -11 9 -14 15 -8 12 6 -3 1 4 -12 15 -13 12 -23 26 -23 32 0 6 -7 14 -16 17
-8 3 -13 10 -10 15 3 5 -4 11 -15 14 -15 4 -20 11 -16 21 4 11 1 16 -11 16 -9
0 -26 14 -37 30 -11 16 -26 30 -32 30 -7 0 -12 3 -12 8 4 21 -3 32 -20 32 -21
0 -44 23 -33 34 4 4 3 7 -3 6 -21 -5 -36 0 -30 10 3 6 1 10 -5 10 -6 0 -8 5
-4 12 4 7 3 8 -5 4 -6 -4 -8 -13 -4 -19 3 -7 -3 -3 -15 7 -24 21 -29 31 -9 20
7 -4 9 -3 4 2 -5 5 -13 10 -18 10 -5 1 -14 2 -20 3 -5 0 -7 5 -4 11 3 5 0 7
-9 4 -8 -3 -23 3 -33 13 -11 11 -25 17 -33 15 -7 -3 -10 0 -6 7 4 6 1 11 -6
11 -19 0 -68 23 -68 32 0 4 -7 5 -15 2 -9 -4 -18 1 -21 11 -5 13 -9 14 -15 3
-6 -10 -9 -8 -9 7 0 12 -3 16 -8 9 -10 -16 -56 2 -46 18 5 10 4 10 -6 1 -13
-12 -43 -6 -35 7 3 5 1 12 -5 15 -6 4 -9 1 -8 -6 2 -6 -3 -14 -9 -16 -7 -3
-13 2 -13 10 0 10 -8 13 -25 9 -15 -2 -25 0 -25 7 0 9 -5 9 -20 1 -19 -10 -25
-6 -20 15 1 6 -4 5 -11 -2 -8 -8 -18 -9 -31 -2 -10 5 -18 7 -18 3 0 -3 -8 0
-17 7 -11 10 -14 10 -9 2 4 -8 1 -13 -8 -13 -9 0 -16 6 -16 13 0 8 -3 9 -8 1
-4 -6 -16 -9 -27 -7 -11 2 -30 4 -42 5 -14 0 -20 5 -16 12 4 6 -1 5 -10 -3 -9
-7 -17 -10 -17 -6 0 4 -6 2 -14 -4 -11 -10 -17 -8 -25 6 -6 10 -11 12 -11 6 0
-7 -5 -13 -11 -13 -5 0 -7 5 -4 10 3 6 4 10 0 10 -3 0 -8 -7 -12 -16z m-383
-94 c0 -5 -5 -10 -11 -10 -5 0 -7 5 -4 10 3 6 8 10 11 10 2 0 4 -4 4 -10z"/>
<path d="M2315 1961 c-3 -5 -2 -12 3 -15 5 -3 9 1 9 9 0 17 -3 19 -12 6z"/>
<path d="M2373 715 c0 -8 4 -12 9 -9 5 3 6 10 3 15 -9 13 -12 11 -12 -6z"/>
<path d="M1565 80 c3 -5 8 -10 11 -10 2 0 4 5 4 10 0 6 -5 10 -11 10 -5 0 -7
-4 -4 -10z"/>
</g>
</svg>
